<mxfile host="app.diagrams.net" agent="Mozilla/5.0 (Windows NT 10.0; Win64; x64) AppleWebKit/537.36 (KHTML, like Gecko) Chrome/132.0.0.0 YaBrowser/25.2.0.0 Safari/537.36" version="27.0.6">
  <diagram name="Page-1" id="5f0bae14-7c28-e335-631c-24af17079c00">
    <mxGraphModel dx="2036" dy="1305" grid="0" gridSize="10" guides="1" tooltips="1" connect="1" arrows="1" fold="1" page="0" pageScale="1" pageWidth="1100" pageHeight="850" background="none" math="0" shadow="0">
      <root>
        <mxCell id="0" />
        <mxCell id="1" parent="0" />
        <mxCell id="lL1g4DzB1vZf3QuN_lwf-24" value="Render Hosting" style="verticalAlign=top;align=left;spacingTop=8;spacingLeft=2;spacingRight=12;shape=cube;size=10;direction=south;fontStyle=4;html=1;whiteSpace=wrap;" parent="1" vertex="1">
          <mxGeometry x="-2" y="-20" width="1042" height="723" as="geometry" />
        </mxCell>
        <mxCell id="lL1g4DzB1vZf3QuN_lwf-29" value="WebServer" style="verticalAlign=top;align=left;spacingTop=8;spacingLeft=2;spacingRight=12;shape=cube;size=10;direction=south;fontStyle=4;html=1;whiteSpace=wrap;" parent="1" vertex="1">
          <mxGeometry x="99" y="1048" width="558" height="675" as="geometry" />
        </mxCell>
        <mxCell id="zEpLfYP4PXnwlcTxSNje-4" value="" style="shape=folder;tabWidth=78;tabHeight=21;tabPosition=left;strokeWidth=2;html=1;whiteSpace=wrap;align=center;" parent="1" vertex="1">
          <mxGeometry x="131" y="233" width="862" height="393" as="geometry" />
        </mxCell>
        <mxCell id="zEpLfYP4PXnwlcTxSNje-2" value="123" style="shape=folder;tabWidth=74;tabHeight=20;tabPosition=left;strokeWidth=2;html=1;whiteSpace=wrap;align=center;" parent="1" vertex="1">
          <mxGeometry x="46" y="32" width="321" height="179" as="geometry" />
        </mxCell>
        <mxCell id="lL1g4DzB1vZf3QuN_lwf-3" value="Frontend&amp;nbsp;" style="verticalAlign=top;align=left;spacingTop=8;spacingLeft=2;spacingRight=12;shape=cube;size=10;direction=south;fontStyle=4;html=1;whiteSpace=wrap;" parent="1" vertex="1">
          <mxGeometry x="176" y="1109" width="180" height="120" as="geometry" />
        </mxCell>
        <mxCell id="lL1g4DzB1vZf3QuN_lwf-4" value="HTML&lt;div&gt;with&lt;/div&gt;&lt;div&gt;Thymeleaf&lt;/div&gt;" style="shape=module;align=left;spacingLeft=20;align=center;verticalAlign=top;whiteSpace=wrap;html=1;" parent="1" vertex="1">
          <mxGeometry x="202" y="1154" width="114" height="55" as="geometry" />
        </mxCell>
        <mxCell id="lL1g4DzB1vZf3QuN_lwf-5" value="Backend" style="verticalAlign=top;align=left;spacingTop=8;spacingLeft=2;spacingRight=12;shape=cube;size=10;direction=south;fontStyle=4;html=1;whiteSpace=wrap;" parent="1" vertex="1">
          <mxGeometry x="205" y="1313" width="410" height="310" as="geometry" />
        </mxCell>
        <mxCell id="lL1g4DzB1vZf3QuN_lwf-7" value="Database Server" style="verticalAlign=top;align=left;spacingTop=8;spacingLeft=2;spacingRight=12;shape=cube;size=10;direction=south;fontStyle=4;html=1;whiteSpace=wrap;" parent="1" vertex="1">
          <mxGeometry x="746" y="1379" width="240" height="210" as="geometry" />
        </mxCell>
        <mxCell id="lL1g4DzB1vZf3QuN_lwf-8" value="PostresSQL Database" style="shape=datastore;whiteSpace=wrap;html=1;" parent="1" vertex="1">
          <mxGeometry x="795" y="1437" width="130" height="110" as="geometry" />
        </mxCell>
        <mxCell id="lL1g4DzB1vZf3QuN_lwf-16" style="edgeStyle=orthogonalEdgeStyle;rounded=0;orthogonalLoop=1;jettySize=auto;html=1;exitX=0.5;exitY=1;exitDx=0;exitDy=0;entryX=0.5;entryY=0;entryDx=0;entryDy=0;" parent="1" source="lL1g4DzB1vZf3QuN_lwf-9" target="lL1g4DzB1vZf3QuN_lwf-10" edge="1">
          <mxGeometry relative="1" as="geometry" />
        </mxCell>
        <mxCell id="lL1g4DzB1vZf3QuN_lwf-17" value="Обработка запросов&amp;nbsp;&lt;div&gt;(вызов методов JAVA)&lt;/div&gt;" style="edgeLabel;html=1;align=center;verticalAlign=middle;resizable=0;points=[];" parent="lL1g4DzB1vZf3QuN_lwf-16" vertex="1" connectable="0">
          <mxGeometry x="-0.08" y="1" relative="1" as="geometry">
            <mxPoint x="59" as="offset" />
          </mxGeometry>
        </mxCell>
        <mxCell id="lL1g4DzB1vZf3QuN_lwf-9" value="Controller Layer" style="shape=module;align=left;spacingLeft=20;align=center;verticalAlign=top;whiteSpace=wrap;html=1;" parent="1" vertex="1">
          <mxGeometry x="295" y="1343" width="100" height="50" as="geometry" />
        </mxCell>
        <mxCell id="lL1g4DzB1vZf3QuN_lwf-18" style="rounded=0;orthogonalLoop=1;jettySize=auto;html=1;exitX=0.5;exitY=1;exitDx=0;exitDy=0;entryX=0.5;entryY=0;entryDx=0;entryDy=0;" parent="1" source="lL1g4DzB1vZf3QuN_lwf-10" target="lL1g4DzB1vZf3QuN_lwf-12" edge="1">
          <mxGeometry relative="1" as="geometry" />
        </mxCell>
        <mxCell id="lL1g4DzB1vZf3QuN_lwf-19" value="Получение данных&lt;div&gt;(вызов методов JAVA)&lt;br&gt;&lt;/div&gt;" style="edgeLabel;html=1;align=center;verticalAlign=middle;resizable=0;points=[];labelBackgroundColor=none;" parent="lL1g4DzB1vZf3QuN_lwf-18" vertex="1" connectable="0">
          <mxGeometry x="0.4257" y="2" relative="1" as="geometry">
            <mxPoint x="-56" y="-30" as="offset" />
          </mxGeometry>
        </mxCell>
        <mxCell id="lL1g4DzB1vZf3QuN_lwf-10" value="Service&lt;div&gt;Layer&lt;/div&gt;" style="shape=module;align=left;spacingLeft=20;align=center;verticalAlign=top;whiteSpace=wrap;html=1;" parent="1" vertex="1">
          <mxGeometry x="295" y="1428" width="100" height="50" as="geometry" />
        </mxCell>
        <mxCell id="lL1g4DzB1vZf3QuN_lwf-11" value="Model&lt;div&gt;Layer&lt;/div&gt;" style="shape=module;align=left;spacingLeft=20;align=center;verticalAlign=top;whiteSpace=wrap;html=1;" parent="1" vertex="1">
          <mxGeometry x="485" y="1553" width="100" height="50" as="geometry" />
        </mxCell>
        <mxCell id="lL1g4DzB1vZf3QuN_lwf-12" value="Repository&lt;div&gt;Layer&lt;/div&gt;" style="shape=module;align=left;spacingLeft=20;align=center;verticalAlign=top;whiteSpace=wrap;html=1;" parent="1" vertex="1">
          <mxGeometry x="256" y="1553" width="100" height="50" as="geometry" />
        </mxCell>
        <mxCell id="lL1g4DzB1vZf3QuN_lwf-13" style="rounded=0;orthogonalLoop=1;jettySize=auto;html=1;exitX=0;exitY=0;exitDx=120;exitDy=10;exitPerimeter=0;startArrow=classic;startFill=1;" parent="1" source="lL1g4DzB1vZf3QuN_lwf-3" edge="1">
          <mxGeometry relative="1" as="geometry">
            <mxPoint x="345" y="1311" as="targetPoint" />
          </mxGeometry>
        </mxCell>
        <mxCell id="lL1g4DzB1vZf3QuN_lwf-15" value="REST API &lt;br&gt;(запросы&lt;div&gt;и ответы)&lt;/div&gt;" style="edgeLabel;html=1;align=center;verticalAlign=middle;resizable=0;points=[];labelBackgroundColor=none;" parent="lL1g4DzB1vZf3QuN_lwf-13" vertex="1" connectable="0">
          <mxGeometry x="-0.2533" y="3" relative="1" as="geometry">
            <mxPoint x="29" y="8" as="offset" />
          </mxGeometry>
        </mxCell>
        <mxCell id="lL1g4DzB1vZf3QuN_lwf-20" style="rounded=0;orthogonalLoop=1;jettySize=auto;html=1;exitX=1;exitY=0.5;exitDx=0;exitDy=0;entryX=0.11;entryY=0.5;entryDx=0;entryDy=0;entryPerimeter=0;startArrow=none;startFill=0;" parent="1" edge="1">
          <mxGeometry relative="1" as="geometry">
            <mxPoint x="356" y="1577.85" as="sourcePoint" />
            <mxPoint x="496" y="1577.85" as="targetPoint" />
          </mxGeometry>
        </mxCell>
        <mxCell id="lL1g4DzB1vZf3QuN_lwf-21" value="Работа с моделями&lt;div&gt;(вызов методов JAVA)&lt;br&gt;&lt;/div&gt;" style="edgeLabel;html=1;align=center;verticalAlign=middle;resizable=0;points=[];" parent="lL1g4DzB1vZf3QuN_lwf-20" vertex="1" connectable="0">
          <mxGeometry x="-0.1794" relative="1" as="geometry">
            <mxPoint x="7" y="18" as="offset" />
          </mxGeometry>
        </mxCell>
        <mxCell id="lL1g4DzB1vZf3QuN_lwf-22" style="rounded=0;orthogonalLoop=1;jettySize=auto;html=1;exitX=1;exitY=0;exitDx=0;exitDy=0;entryX=0;entryY=0;entryDx=110;entryDy=240;entryPerimeter=0;startArrow=classic;startFill=1;" parent="1" source="lL1g4DzB1vZf3QuN_lwf-12" target="lL1g4DzB1vZf3QuN_lwf-7" edge="1">
          <mxGeometry relative="1" as="geometry" />
        </mxCell>
        <mxCell id="lL1g4DzB1vZf3QuN_lwf-23" value="SQL запросы/ответы" style="edgeLabel;html=1;align=center;verticalAlign=middle;resizable=0;points=[];" parent="lL1g4DzB1vZf3QuN_lwf-22" vertex="1" connectable="0">
          <mxGeometry x="-0.4794" y="2" relative="1" as="geometry">
            <mxPoint x="40" y="-22" as="offset" />
          </mxGeometry>
        </mxCell>
        <mxCell id="lL1g4DzB1vZf3QuN_lwf-25" value="Пользователь" style="shape=umlActor;verticalLabelPosition=bottom;verticalAlign=top;html=1;outlineConnect=0;" parent="1" vertex="1">
          <mxGeometry x="341" y="892" width="30" height="60" as="geometry" />
        </mxCell>
        <mxCell id="lL1g4DzB1vZf3QuN_lwf-27" value="Database Layer" style="verticalAlign=top;align=left;spacingTop=8;spacingLeft=2;spacingRight=12;shape=cube;size=10;direction=south;fontStyle=4;html=1;whiteSpace=wrap;" parent="1" vertex="1">
          <mxGeometry x="722" y="313" width="240" height="210" as="geometry" />
        </mxCell>
        <mxCell id="lL1g4DzB1vZf3QuN_lwf-28" value="Database" style="shape=datastore;whiteSpace=wrap;html=1;" parent="1" vertex="1">
          <mxGeometry x="738" y="373" width="130" height="110" as="geometry" />
        </mxCell>
        <mxCell id="lL1g4DzB1vZf3QuN_lwf-30" value="Frontend Layer" style="verticalAlign=top;align=left;spacingTop=8;spacingLeft=2;spacingRight=12;shape=cube;size=10;direction=south;fontStyle=4;html=1;whiteSpace=wrap;" parent="1" vertex="1">
          <mxGeometry x="114" y="72" width="180" height="120" as="geometry" />
        </mxCell>
        <mxCell id="lL1g4DzB1vZf3QuN_lwf-31" value="Пользовательский&lt;div&gt;интерфейс&lt;/div&gt;" style="shape=module;align=left;spacingLeft=20;align=center;verticalAlign=top;whiteSpace=wrap;html=1;" parent="1" vertex="1">
          <mxGeometry x="134.5" y="118" width="139" height="50" as="geometry" />
        </mxCell>
        <mxCell id="lL1g4DzB1vZf3QuN_lwf-32" value="App" style="verticalAlign=top;align=left;spacingTop=8;spacingLeft=2;spacingRight=12;shape=cube;size=10;direction=south;fontStyle=4;html=1;whiteSpace=wrap;" parent="1" vertex="1">
          <mxGeometry x="171.5" y="273" width="411" height="310" as="geometry" />
        </mxCell>
        <mxCell id="lL1g4DzB1vZf3QuN_lwf-33" style="edgeStyle=orthogonalEdgeStyle;rounded=0;orthogonalLoop=1;jettySize=auto;html=1;exitX=0.5;exitY=1;exitDx=0;exitDy=0;entryX=0.5;entryY=0;entryDx=0;entryDy=0;startArrow=classic;startFill=1;" parent="1" source="lL1g4DzB1vZf3QuN_lwf-35" target="lL1g4DzB1vZf3QuN_lwf-38" edge="1">
          <mxGeometry relative="1" as="geometry" />
        </mxCell>
        <mxCell id="lL1g4DzB1vZf3QuN_lwf-34" value="Обработка запросов&lt;div&gt;и ответы на них&lt;/div&gt;" style="edgeLabel;html=1;align=center;verticalAlign=middle;resizable=0;points=[];" parent="lL1g4DzB1vZf3QuN_lwf-33" vertex="1" connectable="0">
          <mxGeometry x="-0.08" y="1" relative="1" as="geometry">
            <mxPoint x="59" y="2" as="offset" />
          </mxGeometry>
        </mxCell>
        <mxCell id="lL1g4DzB1vZf3QuN_lwf-35" value="Уровень&lt;br&gt;представления&lt;br&gt;данных" style="shape=module;align=left;spacingLeft=20;align=center;verticalAlign=top;whiteSpace=wrap;html=1;" parent="1" vertex="1">
          <mxGeometry x="261.5" y="303" width="112.5" height="50" as="geometry" />
        </mxCell>
        <mxCell id="lL1g4DzB1vZf3QuN_lwf-36" style="rounded=0;orthogonalLoop=1;jettySize=auto;html=1;exitX=0.5;exitY=1;exitDx=0;exitDy=0;entryX=0.5;entryY=0;entryDx=0;entryDy=0;startArrow=classic;startFill=1;" parent="1" source="lL1g4DzB1vZf3QuN_lwf-38" target="lL1g4DzB1vZf3QuN_lwf-40" edge="1">
          <mxGeometry relative="1" as="geometry" />
        </mxCell>
        <mxCell id="lL1g4DzB1vZf3QuN_lwf-37" value="Запрос/Получение&amp;nbsp;&lt;div&gt;данных&lt;/div&gt;" style="edgeLabel;html=1;align=center;verticalAlign=middle;resizable=0;points=[];" parent="lL1g4DzB1vZf3QuN_lwf-36" vertex="1" connectable="0">
          <mxGeometry x="0.4257" y="2" relative="1" as="geometry">
            <mxPoint x="82" y="-20" as="offset" />
          </mxGeometry>
        </mxCell>
        <mxCell id="lL1g4DzB1vZf3QuN_lwf-38" value="Уровень&lt;br&gt;бизнес-логики" style="shape=module;align=left;spacingLeft=20;align=center;verticalAlign=top;whiteSpace=wrap;html=1;" parent="1" vertex="1">
          <mxGeometry x="267" y="393" width="100" height="50" as="geometry" />
        </mxCell>
        <mxCell id="lL1g4DzB1vZf3QuN_lwf-39" value="Модели для&lt;br&gt;работы с&lt;br&gt;БД" style="shape=module;align=left;spacingLeft=20;align=center;verticalAlign=top;whiteSpace=wrap;html=1;" parent="1" vertex="1">
          <mxGeometry x="443" y="513" width="100" height="50" as="geometry" />
        </mxCell>
        <mxCell id="lL1g4DzB1vZf3QuN_lwf-40" value="Уровень&lt;br&gt;управления данными" style="shape=module;align=left;spacingLeft=20;align=center;verticalAlign=top;whiteSpace=wrap;html=1;" parent="1" vertex="1">
          <mxGeometry x="191.5" y="513" width="100" height="50" as="geometry" />
        </mxCell>
        <mxCell id="lL1g4DzB1vZf3QuN_lwf-41" style="rounded=0;orthogonalLoop=1;jettySize=auto;html=1;exitX=0;exitY=0;exitDx=120;exitDy=10;exitPerimeter=0;entryX=0.5;entryY=0;entryDx=0;entryDy=0;startArrow=classic;startFill=1;" parent="1" source="lL1g4DzB1vZf3QuN_lwf-30" target="lL1g4DzB1vZf3QuN_lwf-35" edge="1">
          <mxGeometry relative="1" as="geometry">
            <mxPoint x="281.5" y="243" as="sourcePoint" />
          </mxGeometry>
        </mxCell>
        <mxCell id="lL1g4DzB1vZf3QuN_lwf-42" value="Отправка и получение запросов" style="edgeLabel;html=1;align=center;verticalAlign=middle;resizable=0;points=[];" parent="lL1g4DzB1vZf3QuN_lwf-41" vertex="1" connectable="0">
          <mxGeometry x="-0.2533" y="3" relative="1" as="geometry">
            <mxPoint x="84" y="-2" as="offset" />
          </mxGeometry>
        </mxCell>
        <mxCell id="lL1g4DzB1vZf3QuN_lwf-43" style="rounded=0;orthogonalLoop=1;jettySize=auto;html=1;exitX=1;exitY=0.5;exitDx=0;exitDy=0;entryX=0.103;entryY=0.497;entryDx=0;entryDy=0;entryPerimeter=0;startArrow=classic;startFill=1;endArrow=none;" parent="1" source="lL1g4DzB1vZf3QuN_lwf-40" target="lL1g4DzB1vZf3QuN_lwf-39" edge="1">
          <mxGeometry relative="1" as="geometry" />
        </mxCell>
        <mxCell id="lL1g4DzB1vZf3QuN_lwf-44" value="Сущности для корректной &lt;br&gt;работы с данными" style="edgeLabel;html=1;align=center;verticalAlign=middle;resizable=0;points=[];" parent="lL1g4DzB1vZf3QuN_lwf-43" vertex="1" connectable="0">
          <mxGeometry x="-0.1794" relative="1" as="geometry">
            <mxPoint x="14" y="-15" as="offset" />
          </mxGeometry>
        </mxCell>
        <mxCell id="lL1g4DzB1vZf3QuN_lwf-45" value="" style="edgeStyle=orthogonalEdgeStyle;rounded=0;orthogonalLoop=1;jettySize=auto;html=1;startArrow=classic;startFill=1;" parent="1" edge="1">
          <mxGeometry relative="1" as="geometry">
            <mxPoint x="356" y="972" as="sourcePoint" />
            <mxPoint x="356" y="1048" as="targetPoint" />
          </mxGeometry>
        </mxCell>
        <mxCell id="lL1g4DzB1vZf3QuN_lwf-46" value="HTTP запросы/ответы&lt;div&gt;(взаимодействие с веб-приложением)&lt;/div&gt;" style="edgeLabel;html=1;align=center;verticalAlign=middle;resizable=0;points=[];labelBackgroundColor=none;" parent="lL1g4DzB1vZf3QuN_lwf-45" vertex="1" connectable="0">
          <mxGeometry x="0.3037" y="-1" relative="1" as="geometry">
            <mxPoint x="99" y="-32" as="offset" />
          </mxGeometry>
        </mxCell>
        <mxCell id="lL1g4DzB1vZf3QuN_lwf-47" style="rounded=0;orthogonalLoop=1;jettySize=auto;html=1;exitX=0;exitY=0;exitDx=150;exitDy=0;exitPerimeter=0;entryX=0;entryY=0;entryDx=110;entryDy=240;entryPerimeter=0;startArrow=classic;startFill=1;" parent="1" source="lL1g4DzB1vZf3QuN_lwf-32" target="lL1g4DzB1vZf3QuN_lwf-27" edge="1">
          <mxGeometry relative="1" as="geometry" />
        </mxCell>
        <mxCell id="lL1g4DzB1vZf3QuN_lwf-48" value="Подключение к&lt;div&gt;базе данных&lt;br&gt;(выполнение запросов, &lt;br&gt;получение ответов)&lt;/div&gt;" style="edgeLabel;html=1;align=center;verticalAlign=middle;resizable=0;points=[];labelBackgroundColor=none;" parent="lL1g4DzB1vZf3QuN_lwf-47" vertex="1" connectable="0">
          <mxGeometry x="0.2073" y="1" relative="1" as="geometry">
            <mxPoint x="-13" y="31" as="offset" />
          </mxGeometry>
        </mxCell>
        <mxCell id="zEpLfYP4PXnwlcTxSNje-3" value="&lt;b&gt;Frontend&lt;/b&gt;" style="text;html=1;align=center;verticalAlign=middle;resizable=0;points=[];autosize=1;strokeColor=none;fillColor=none;" parent="1" vertex="1">
          <mxGeometry x="44" y="29" width="70" height="26" as="geometry" />
        </mxCell>
        <mxCell id="zEpLfYP4PXnwlcTxSNje-5" value="&lt;b&gt;Backend&lt;/b&gt;" style="text;html=1;align=center;verticalAlign=middle;resizable=0;points=[];autosize=1;strokeColor=none;fillColor=none;" parent="1" vertex="1">
          <mxGeometry x="128" y="231" width="68" height="26" as="geometry" />
        </mxCell>
        <mxCell id="4SomBUl-GAu_KjxZ-yqg-1" value="" style="shape=image;verticalLabelPosition=bottom;labelBackgroundColor=default;verticalAlign=top;aspect=fixed;imageAspect=0;image=https://lmsdo.rea.ru/pluginfile.php/14950/course/overviewfiles/react%404x.png;" parent="1" vertex="1">
          <mxGeometry x="242" y="75" width="51" height="51" as="geometry" />
        </mxCell>
        <mxCell id="4SomBUl-GAu_KjxZ-yqg-3" value="" style="shape=image;verticalLabelPosition=bottom;labelBackgroundColor=default;verticalAlign=top;aspect=fixed;imageAspect=0;image=https://user-images.githubusercontent.com/81221395/146988241-e9b117b4-745a-4d71-bc41-752e6f04f2b2.png;" parent="1" vertex="1">
          <mxGeometry x="863" y="322" width="89.5" height="74.27" as="geometry" />
        </mxCell>
        <mxCell id="rFtmG5b3M1G18vE-82-Z-8" value="" style="shape=image;verticalLabelPosition=bottom;labelBackgroundColor=default;verticalAlign=top;aspect=fixed;imageAspect=0;image=https://2.bp.blogspot.com/-KHc5xYpmkgU/WuawLB0BKnI/AAAAAAAAAzo/xu5gYEcXAcM8_SgZe84latdble-NN2I2QCLcBGAs/s1600/express.thumb.png;" vertex="1" parent="1">
          <mxGeometry x="437" y="263" width="133" height="83.12" as="geometry" />
        </mxCell>
        <mxCell id="rFtmG5b3M1G18vE-82-Z-9" value="" style="shape=image;verticalLabelPosition=bottom;labelBackgroundColor=default;verticalAlign=top;aspect=fixed;imageAspect=0;image=https://dashboard.render.com/favicon-light.png;" vertex="1" parent="1">
          <mxGeometry x="894.0020538651318" y="-1.9962900904604055" width="128" height="128" as="geometry" />
        </mxCell>
      </root>
    </mxGraphModel>
  </diagram>
</mxfile>
